<svg width="25" height="13" viewBox="0 0 25 13" fill="none" xmlns="http://www.w3.org/2000/svg">
<path d="M11.25 12.5H6.25C4.52083 12.5 3.04688 11.8906 1.82812 10.6719C0.609375 9.45312 0 7.97917 0 6.25C0 4.52083 0.609375 3.04688 1.82812 1.82812C3.04688 0.609375 4.52083 0 6.25 0H11.25V2.5H6.25C5.20833 2.5 4.32292 2.86458 3.59375 3.59375C2.86458 4.32292 2.5 5.20833 2.5 6.25C2.5 7.29167 2.86458 8.17708 3.59375 8.90625C4.32292 9.63542 5.20833 10 6.25 10H11.25V12.5V12.5M7.5 7.5V5H17.5V7.5H7.5V7.5M13.75 12.5V10H18.75C19.7917 10 20.6771 9.63542 21.4062 8.90625C22.1354 8.17708 22.5 7.29167 22.5 6.25C22.5 5.20833 22.1354 4.32292 21.4062 3.59375C20.6771 2.86458 19.7917 2.5 18.75 2.5H13.75V0H18.75C20.4792 0 21.9531 0.609375 23.1719 1.82812C24.3906 3.04688 25 4.52083 25 6.25C25 7.97917 24.3906 9.45312 23.1719 10.6719C21.9531 11.8906 20.4792 12.5 18.75 12.5H13.75V12.5" fill="#3C83F6"/>
</svg>
